<svg version="1.1" xmlns="http://www.w3.org/2000/svg" xmlns:xlink="http://www.w3.org/1999/xlink" width="16.32481" height="8.64698" viewBox="0,0,16.32481,8.64698"><g transform="translate(-231.80519,-175.40444)"><g data-paper-data="{&quot;isPaintingLayer&quot;:true}" fill-rule="nonzero" stroke-linejoin="miter" stroke-miterlimit="10" stroke-dasharray="" stroke-dashoffset="0" style="mix-blend-mode: normal"><path d="M234.08421,184.00206c0,0 -2.61271,0.21615 -2.15955,-2.34157c0.25106,-1.41706 2.41769,-1.86692 2.41769,-1.86692c0,0 -0.51563,-3.50634 2.55514,-4.22469c4.35506,-1.01877 5.07673,3.02915 5.07673,3.02915c0,0 0.33537,-1.60518 2.29179,-1.60506c2.05222,0.00012 2.21554,2.84431 2.21554,2.84431c0,0 1.60471,-0.07867 1.64802,2.22743c0.03923,2.08949 -2.5696,1.98586 -2.5696,1.98586z" fill="#6b6b6b" stroke="none" stroke-width="0" stroke-linecap="butt"/><path d="M234.55832,183.95926c-0.55877,0.012 -1.14107,0.05568 -1.59839,-0.10001c-0.9139,-0.31113 -1.40168,-1.08364 -1.02868,-2.25716c0.52845,-1.66255 2.44714,-1.74539 2.44714,-1.74539c0,0 -0.45281,-2.00157 0.96403,-3.59204c0.79791,-0.89571 2.74406,-0.81177 2.74406,-0.81177c0,0 -1.29611,0.99283 -1.6504,2.40706c-0.43558,1.73874 0.99797,2.71263 0.99797,2.71263c0,0 -0.84747,0.3798 -1.21323,1.66851c-0.33022,1.16346 0.48515,1.73202 0.48515,1.73202c0,0 -1.87896,-0.01962 -2.14763,-0.01386z" fill="#626262" stroke="#000000" stroke-width="0" stroke-linecap="butt"/><path d="M243.19355,178.84062c-0.31213,1.1655 -0.27664,1.9613 -0.65404,1.88215c-0.34369,-0.07208 -0.33355,-0.52551 -0.33355,-0.52551c0,0 -0.24382,-1.07887 -0.24382,-1.54392c0,-0.4817 0.34079,-0.97716 0.83561,-1.29893c0.63831,-0.41508 1.40516,-0.34069 1.40516,-0.34069c0,0 -0.724,0.76138 -1.00935,1.82691z" fill="#626262" stroke="#000000" stroke-width="0" stroke-linecap="butt"/><path d="M238.17238,179.22428c0.23724,0.0169 0.50434,-0.21781 0.72673,-0.15716c0.43269,0.118 -0.70296,1.5973 -1.33078,0.49861c-0.07434,-0.04387 -0.12421,-0.12479 -0.12421,-0.21735c0,-0.13929 0.11291,-0.2522 0.2522,-0.2522c0.0354,0 0.06909,0.00729 0.09966,0.02046c0.09628,0.02898 0.20871,0.0957 0.37638,0.10764z" fill="#505050" stroke="none" stroke-width="0.5" stroke-linecap="butt"/><path d="M238.09135,179.40907c0.15474,0.0112 0.29303,0.00407 0.45403,-0.02998l0.07932,-0.05288c0.01151,-0.00792 0.02545,-0.01256 0.04048,-0.01256c0.0095,0 0.01858,0.00185 0.02687,0.00522l0.08866,-0.06966c0.01224,-0.0098 0.02777,-0.01566 0.04467,-0.01566c0.00221,0 0.00441,0.0001 0.00657,0.0003c0.01778,-0.01259 0.04729,-0.02354 0.0821,0.00256c0.05721,0.04291 0.01431,0.10012 0.01431,0.10012l-0.06816,0.09087c-0.01301,0.01775 -0.03402,0.02928 -0.05771,0.02928c-0.01453,0 -0.02805,-0.00433 -0.03933,-0.01178l-0.00606,0.00477l-0.00095,-0.00122c-0.00031,0.00087 -0.00061,0.00176 -0.00092,0.00263l-0.00233,0.00075l0.00042,0.0006l-0.10418,0.07131c-0.01164,0.00821 -0.02584,0.01302 -0.04116,0.01302c-0.01578,0 -0.03036,-0.00511 -0.04219,-0.01376c-0.0509,0.04963 -0.13353,0.06923 -0.22808,0.07201c-0.00049,0.01447 -0.00633,0.03058 -0.02244,0.04669c-0.05057,0.05057 -0.10113,0 -0.10113,0l0.00113,-0.00705c-0.04393,-0.01796 -0.08756,-0.0374 -0.12806,-0.0603c-0.12926,-0.02079 -0.25092,-0.05118 -0.32307,-0.0633l-0.00681,-0.00614l-0.00137,0.0032l-0.07858,-0.03368c-0.02629,-0.01057 -0.04486,-0.03631 -0.04486,-0.06638c0,-0.03949 0.03201,-0.07152 0.07152,-0.07152h0.0801v0.02803l0.02211,0.00948c0.00073,0.00011 0.00145,0.00023 0.00217,0.00034c0.02253,-0.0013 0.03096,-0.00241 0.00971,-0.00472l-0.02907,-0.12484c0.12322,0.04252 0.20971,0.10568 0.30232,0.16422z" fill="#414141" stroke="none" stroke-width="0.5" stroke-linecap="butt"/><path d="M238.95504,182.74397c0,-0.07152 0.07152,-0.07152 0.07152,-0.07152c0.15943,0 0.31887,0 0.47831,0c0.01279,-0.04975 0.06894,-0.04975 0.06894,-0.04975l0.00226,0.00367c0.34572,-0.11132 0.9404,-0.08959 1.34494,0.03236l0.00354,-0.02124l0.13993,0.02332c0.03447,0.00512 0.06091,0.03484 0.06091,0.07074c0,0.03949 -0.03201,0.07152 -0.07152,0.07152h-0.13681c-0.10011,-0.00002 -0.20498,0.01249 -0.31119,0.02644c-0.01237,0.02137 -0.03547,0.03574 -0.06194,0.03574h-0.0995c-0.36559,0 -0.79161,0.05539 -1.16405,-0.01221c-0.01618,-0.00016 -0.03238,-0.00024 -0.0486,-0.00024h-0.00546l-0.00097,0.01164l-0.14186,-0.01182c-0.02488,-0.00181 -0.04623,-0.01634 -0.05756,-0.03713c-0.0071,-0.00021 -0.07088,-0.00397 -0.07088,-0.0715z" fill="#505050" stroke="none" stroke-width="0.5" stroke-linecap="butt"/><path d="M242.28022,179.18474c0.03057,-0.01317 0.06426,-0.02046 0.09966,-0.02046c0.13929,0 0.2522,0.11291 0.2522,0.2522c0,0.09257 -0.04987,0.17348 -0.12421,0.21735c-0.62782,1.09869 -1.76347,-0.3806 -1.33078,-0.49861c0.22238,-0.06065 0.4895,0.17405 0.72673,0.15716c0.16767,-0.01194 0.28011,-0.07867 0.37638,-0.10764z" data-paper-data="{&quot;index&quot;:null}" fill="#505050" stroke="none" stroke-width="0.5" stroke-linecap="butt"/><path d="M241.83612,179.75025c-0.01853,-0.02317 -0.01976,-0.0444 -0.01487,-0.06133c-0.0261,-0.00149 -0.05231,-0.00423 -0.07828,-0.00821c-0.00894,0.0293 -0.03619,0.05062 -0.06841,0.05062c-0.01679,0 -0.03222,-0.00578 -0.04443,-0.01547l-0.06663,-0.05187c-0.0381,-0.02794 -0.07621,-0.05588 -0.11431,-0.08382c0,0 -0.02032,-0.0149 -0.02799,-0.03907c-0.00688,-0.00656 -0.0134,-0.01333 -0.01952,-0.02029c-0.01445,-0.00958 -0.02898,-0.01946 -0.04383,-0.02941l-0.00257,0.00334l-0.04256,-0.03274c-0.00364,-0.00227 -0.0073,-0.00454 -0.01099,-0.00679l-0.0013,-0.00268l-0.00151,-0.00116l-0.00087,0.00108l-0.0567,-0.04536c-0.01666,-0.0131 -0.02736,-0.03342 -0.02736,-0.05626c0,-0.03949 0.03201,-0.07152 0.07152,-0.07152c0.01665,0 0.03198,0.0057 0.04413,0.01523l0.0655,0.05038c0.01155,0.00701 0.02255,0.01371 0.03306,0.02017c0.15125,0.04282 0.3525,0.09941 0.49541,0.1457c0.02714,-0.07886 0.10802,-0.11592 0.20751,-0.13108l-0.00494,-0.02307l0.13836,-0.02965c0.00529,-0.00125 0.0108,-0.00191 0.01647,-0.00191c0.01816,0 0.03473,0.00676 0.04733,0.01791c0.03714,0.00259 0.06648,0.03354 0.06648,0.07134c0,0.02338 -0.01122,0.04413 -0.02856,0.05718l-0.11035,0.08478l-0.00277,-0.0036c-0.00262,0.00346 -0.00522,0.0069 -0.00784,0.01036l-0.01285,0.00088l0.00122,0.00391l-0.03398,0.01061c-0.01354,0.01484 -0.02926,0.02813 -0.04681,0.03992l-0.00183,0.00822l-0.00814,-0.00181c-0.00749,0.00462 -0.01529,0.00899 -0.02333,0.0131c-0.00675,0.01905 -0.02133,0.03438 -0.03987,0.04213l-0.09511,0.04227l-0.04797,0.0391c0,0 -0.05585,0.04467 -0.10052,-0.01116z" fill="#414141" stroke="none" stroke-width="0.5" stroke-linecap="butt"/><path d="M237.86328,179.11521c0,-0.19748 0.16009,-0.35758 0.35758,-0.35758c0.19748,0 0.35758,0.16009 0.35758,0.35758c0,0.19748 -0.16009,0.35758 -0.35758,0.35758c-0.19748,0 -0.35758,-0.16009 -0.35758,-0.35758z" fill="#000000" stroke="none" stroke-width="0.5" stroke-linecap="butt"/><path d="M241.4629,179.11521c0,-0.19748 0.16009,-0.35758 0.35758,-0.35758c0.19748,0 0.35758,0.16009 0.35758,0.35758c0,0.19748 -0.16009,0.35758 -0.35758,0.35758c-0.19748,0 -0.35758,-0.16009 -0.35758,-0.35758z" fill="#000000" stroke="none" stroke-width="0.5" stroke-linecap="butt"/><path d="M239.3049,178.54794c0.04859,0.05247 -0.00388,0.10106 -0.00388,0.10106l-0.09517,0.08283c-0.00308,0.00033 -0.00616,0.00066 -0.00924,0.00099c0.03215,0.02956 0.01576,0.07543 0.01576,0.07543c-0.13709,0.38383 -0.18655,0.77689 -0.18655,1.18376v0.07946c0,0 0,0.07152 -0.07152,0.07152c-0.07152,0 -0.07152,-0.07152 -0.07152,-0.07152v-0.07946c0,-0.166 0.00804,-0.32985 0.02641,-0.49181l-0.01308,-0.00436l-0.00642,0.00803c-0.1939,0.44636 -1.13191,0.58309 -1.43744,0.21496l-0.03991,-0.07626c0,0 -0.03198,-0.06397 0.03199,-0.09595c0.06397,-0.03199 0.09595,0.03199 0.09595,0.03199l0.02366,0.05088c0.12126,0.15974 0.30026,0.1821 0.48906,0.14483c-0.24894,-0.09038 -0.47419,-0.29024 -0.57885,-0.53286c0,0 -0.02817,-0.06573 0.03756,-0.09391c0.06573,-0.02817 0.09391,0.03756 0.09391,0.03756c0.1168,0.27451 0.43205,0.50026 0.72292,0.50201c0.14316,-0.05877 0.27847,-0.13043 0.38441,-0.18014c0.0197,-0.02406 0.03825,-0.05076 0.0555,-0.08025l0.00424,-0.00276l-0.00137,-0.0011l0.06315,-0.07895c0.0131,-0.01666 0.03342,-0.02736 0.05626,-0.02736c0.0156,0 0.03004,0.005 0.04179,0.01347c0.03107,-0.19245 0.07813,-0.38229 0.14514,-0.56992c0,0 0.00246,-0.00688 0.008,-0.01545c-0.01509,0.00162 -0.03018,0.00323 -0.04526,0.00485c0,0 -0.07127,0.00594 -0.0772,-0.06533c-0.00594,-0.07126 0.06533,-0.0772 0.06533,-0.0772c0.03987,-0.00202 0.07976,-0.00403 0.11963,-0.00605l0.05566,-0.05688c0,0 0.05247,-0.04859 0.10106,0.00388z" fill="#000000" stroke="none" stroke-width="0.5" stroke-linecap="butt"/><path d="M241.21741,178.78725c0,0.07152 -0.07152,0.07152 -0.07152,0.07152l-0.03189,-0.00141c0.0418,0.2228 0.06316,0.45508 0.09581,0.68198c0.00906,-0.0001 0.01524,0.00115 0.01524,0.00115c0.36441,0.07315 0.87306,0.19549 1.19856,-0.05066l0.01519,-0.03013c0,0 0.03967,-0.0595 0.09917,-0.01983c0.0595,0.03967 0.01983,0.09917 0.01983,0.09917l-0.04838,0.06522c-0.30589,0.22782 -0.72888,0.18571 -1.09985,0.11785c0.23325,0.16168 0.43489,0.22032 0.75076,0.1695l0.10318,-0.04478c0,0 0.06573,-0.02817 0.09391,0.03756c0.02817,0.06573 -0.03756,0.09391 -0.03756,0.09391l-0.11931,0.05057c-0.39313,0.06748 -0.6461,-0.01753 -0.94922,-0.24523c0.00875,0.04292 0.01835,0.08546 0.02905,0.12747l0.00213,0.04913c0,0 0,0.07152 -0.07152,0.07152c-0.07152,0 -0.07152,-0.07152 -0.07152,-0.07152l0.00213,-0.01444c-0.08708,-0.3541 -0.10323,-0.73824 -0.17557,-1.09989c0,0 -0.00477,-0.02383 0.00515,-0.04649c-0.02808,-0.03283 -0.05235,-0.06888 -0.06884,-0.1082c0,0 -0.02656,-0.0664 0.03984,-0.09296c0.0664,-0.02656 0.09296,0.03984 0.09296,0.03984c0.01084,0.02919 0.02329,0.05873 0.04271,0.08308l0.06798,-0.00544c0,0 0.07152,0 0.07152,0.07152z" fill="#000000" stroke="none" stroke-width="0.5" stroke-linecap="butt"/><path d="M238.88378,181.02916c0,0 0.01176,-0.07054 0.0823,-0.05879c0.03532,0.00589 0.05002,0.02652 0.05587,0.04565c0.0085,0.00089 0.01781,0.00355 0.02792,0.00861c0.06397,0.03199 0.03199,0.09595 0.03199,0.09595l-0.00906,0.00991c-0.03271,0.22769 -0.0731,0.41394 -0.18243,0.5864l0.01991,0.01073l-0.06712,0.12464c-0.01186,0.0231 -0.03592,0.0389 -0.06366,0.0389c-0.03949,0 -0.07152,-0.03201 -0.07152,-0.07152c0,-0.00567 0.00066,-0.01119 0.00191,-0.01647l0.01739,-0.08115c0.05009,-0.23336 0.11715,-0.45682 0.15649,-0.69286z" fill="#000000" stroke="none" stroke-width="0.5" stroke-linecap="butt"/><path d="M241.07596,180.9622c0,-0.00025 0,-0.0005 0,-0.00074c0,0 0,-0.07152 0.07152,-0.07152c0.07152,0 0.07152,0.07152 0.07152,0.07152c0,0.11291 0.01115,0.21956 0.02979,0.32444c0.02557,0.08937 0.05374,0.17996 0.0611,0.26475c0.01389,0.05087 0.02881,0.1022 0.04436,0.15452l-0.00243,0.00787l0.00343,-0.00026l0.00652,0.08471c0.00018,0.00206 0.00027,0.00416 0.00027,0.00627c0,0.03949 -0.03201,0.07152 -0.07152,0.07152c-0.03404,0 -0.06251,-0.02377 -0.06974,-0.05562l-0.03433,-0.1373l0.01164,-0.00291c-0.00297,-0.01006 -0.00591,-0.0201 -0.00881,-0.03012c-0.07951,-0.19286 -0.12822,-0.40706 -0.12919,-0.6084v-0.03179c0,0 0,-0.02624 0.0159,-0.04693z" fill="#000000" stroke="none" stroke-width="0.5" stroke-linecap="butt"/><path d="M238.83008,182.91911c-0.05056,0.05056 -0.10113,0 -0.10113,0l-0.03173,-0.03173c-0.01327,-0.01379 -0.02592,-0.02889 -0.03782,-0.04503c-0.01229,0.00997 -0.02795,0.01593 -0.045,0.01593c-0.03556,0 -0.06505,-0.02596 -0.07058,-0.05995l-0.02536,-0.13949l0.00192,-0.00035l-0.00277,-0.00603c-0.0002,-0.0922 -0.00029,-0.18439 -0.00029,-0.2766c0,0 0,-0.05458 0.04768,-0.06838v-0.04287v0c0,-0.03949 0.03201,-0.07152 0.07152,-0.07152c0.03949,0 0.07152,0.03201 0.07152,0.07152v0.14304c0,0.07341 0.00153,0.13009 -0.00189,0.18119c0.01826,0.08132 0.04526,0.15339 0.09212,0.19727l0.03185,0.03185c0,0 0.05056,0.05057 0,0.10114z" fill="#000000" stroke="none" stroke-width="0.5" stroke-linecap="butt"/><path d="M241.38551,182.4023c-0.00451,-0.02452 -0.00725,-0.04927 -0.00759,-0.07411c0,0 0,-0.07152 0.07152,-0.07152c0.06132,0 0.07006,0.05257 0.07131,0.06756c0.02514,0.00879 0.04387,0.03124 0.04732,0.05845l0.01574,0.11021l-0.00183,0.00026l0.00236,0.00479c-0.00059,0.00169 -0.0012,0.00338 -0.00179,0.00507h0.00197v0.11125c0,0.0188 -0.00725,0.03591 -0.01912,0.04867c-0.0022,0.10799 -0.04654,0.22331 -0.0902,0.31187l-0.01085,0.00549l0.00331,0.00333l-0.06316,0.06277l-0.00001,0.00001c-0.01293,0.01285 -0.03074,0.02079 -0.05041,0.02079c-0.03949,0 -0.07152,-0.03201 -0.07152,-0.07152c0,-0.00942 0.00182,-0.01842 0.00513,-0.02665l0.03826,-0.10202c0.00409,-0.11575 0.00429,-0.23104 0.00429,-0.3481l0.03934,-0.09555c0,0 0.00531,-0.01063 0.01594,-0.02105z" fill="#000000" stroke="none" stroke-width="0.5" stroke-linecap="butt"/><path d="M240.7899,183.12281c0,0.07152 -0.07152,0.07152 -0.07152,0.07152l-0.09316,-0.00132c-0.54399,-0.21356 -0.91258,-0.03382 -1.46429,-0.03046c0,0 -0.07152,0 -0.07152,-0.07152c0,-0.07152 0.07152,-0.07152 0.07152,-0.07152c0.55547,0.00421 0.94117,-0.20047 1.49169,0.03311l0.06576,-0.00133c0,0 0.07152,0 0.07152,0.07152z" fill="#000000" stroke="none" stroke-width="0.5" stroke-linecap="butt"/><path d="M240.68749,179.7094c-0.0271,0.01355 -0.04846,0.00988 -0.06408,0.00115c-0.01286,0.0124 -0.03036,0.02003 -0.04964,0.02003c-0.03642,0 -0.06647,-0.02722 -0.07095,-0.06242l-0.01858,-0.12968c-0.00981,-0.04316 -0.02193,-0.08289 -0.03181,-0.12124c-0.01286,0.0318 -0.02735,0.0596 -0.04507,0.08727l0.00826,0.00413l-0.06327,0.12654c-0.01147,0.02419 -0.03611,0.04092 -0.06466,0.04092c-0.03914,0 -0.07094,-0.03145 -0.07151,-0.07045l-0.00134,-0.07848c-0.00479,-0.01521 -0.00909,-0.03093 -0.01258,-0.04692l-0.01792,0.02687c-0.01273,0.01972 -0.0349,0.03277 -0.06012,0.03277c-0.03589,0 -0.06561,-0.02644 -0.07074,-0.06091l-0.00057,-0.00342c-0.01323,0.024 -0.02897,0.04648 -0.04829,0.06879l0.01197,0.00958l-0.05407,0.06759c-0.0131,0.01666 -0.03342,0.02736 -0.05626,0.02736c-0.03404,0 -0.06251,-0.02377 -0.06974,-0.05562l-0.01774,-0.07095c-0.01596,0.04836 -0.03519,0.09364 -0.06037,0.1399l0.01465,0.00689l-0.06022,0.12797c-0.01112,0.02504 -0.03622,0.04251 -0.06539,0.04251c-0.03544,0 -0.06485,-0.02578 -0.07053,-0.0596l-0.01394,-0.07443l0.00205,-0.00038l-0.00288,-0.00524c-0.00131,-0.04752 -0.00668,-0.09884 -0.01116,-0.15101c-0.18816,0.43268 -0.27474,-0.03169 -0.19214,-0.55484c0,0 0.01116,-0.07064 0.0818,-0.05949c0.07064,0.01116 0.05949,0.0818 0.05949,0.0818c-0.06955,0.44052 -0.20777,0.95127 0.00892,0.22081l0.04029,-0.13557c0.00827,-0.03036 0.03603,-0.05268 0.06901,-0.05268c0.03895,0 0.07063,0.03114 0.07149,0.06988l0.00373,0.14276l-0.01665,0.00044c0.00802,0.05139 0.01336,0.10221 0.01711,0.15368c0.01614,-0.05951 0.0332,-0.11839 0.0432,-0.17345l0.02536,-0.1395c0.00553,-0.03399 0.03502,-0.05995 0.07058,-0.05995c0.03622,0 0.06616,0.02693 0.07087,0.06187l0.01844,0.1214l-0.01452,0.0022c0.01256,0.04299 0.02151,0.08569 0.02905,0.13406c0.0162,-0.0468 0.03571,-0.09395 0.04214,-0.12857l0.00549,-0.12239c0.00148,-0.03819 0.03291,-0.06869 0.07146,-0.06869c0.03516,0 0.06439,0.02536 0.07039,0.0588l0.01949,0.09746c0.01312,-0.0154 0.03265,-0.02517 0.05447,-0.02517c0.0326,0 0.0601,0.0218 0.06872,0.05163l0.04239,0.1349l-0.01097,0.00345c0.00394,0.00834 0.00779,0.01672 0.01154,0.02514c0.01305,-0.04833 0.03285,-0.09641 0.04649,-0.15755l0.03138,-0.13808c0.00668,-0.03257 0.03551,-0.05706 0.07006,-0.05706c0.02436,0 0.04587,0.01218 0.05879,0.03078c0.00884,-0.02946 0.03617,-0.05093 0.06851,-0.05093c0.03949,0 0.07152,0.03201 0.07152,0.07151l0.00002,0.14304h-0.00006v0.00003c-0.00001,0.01716 -0.00004,0.03354 -0.00016,0.04928c0.02222,0.10667 0.03792,0.21391 0.05402,0.32838l0.00677,0.00521c0,0 0.03198,0.06397 -0.03198,0.09595z" fill="#505050" stroke="none" stroke-width="0.5" stroke-linecap="butt"/><path d="M241.15383,182.06718c0.03577,0.00395 0.06359,0.03426 0.06359,0.07108c0,0.03404 -0.02377,0.06251 -0.05562,0.06974l-0.21495,0.05374c-0.00602,0.00164 -0.01236,0.00253 -0.01891,0.00253c-0.01464,0 -0.02825,-0.0044 -0.03959,-0.01194c-0.17578,0.05711 -0.57014,-0.0252 -0.6863,-0.04254c-0.01629,0 -0.07782,0 -0.07782,0c-0.03949,0 -0.07152,-0.03201 -0.07152,-0.07152c0,-0.00852 0.00149,-0.0167 0.00423,-0.02428c-0.01261,-0.01289 -0.02039,-0.03054 -0.02039,-0.05c0,-0.03404 0.02377,-0.06251 0.05562,-0.06974l0.1373,-0.03433l0.00014,0.00055l0.00151,-0.00094c0.00239,-0.00047 0.00477,-0.00094 0.00716,-0.0014c0.05437,-0.04677 0.12599,-0.04683 0.20145,-0.02646c0.11127,-0.00761 0.2212,-0.00339 0.33153,0.01213v-0.01326h0.00826c-0.02559,-0.03426 -0.04922,-0.06903 -0.0574,-0.10265c-0.04106,-0.16871 -0.04134,-0.31881 -0.00687,-0.47002l-0.01761,-0.00294l0.0177,-0.10621c-0.01179,-0.04264 -0.02315,-0.08541 -0.03389,-0.12837c0,0 -0.01734,-0.06938 0.05203,-0.08672c0.06938,-0.01734 0.08672,0.05204 0.08672,0.05204c0.00761,0.03045 0.01553,0.06079 0.02368,0.09106c0.00494,0.00528 0.00911,0.01132 0.01228,0.01792l0.04635,0.09144l-0.00233,0.00118l0.00555,0.00615c0.0276,0.10952 0.07022,0.26086 0.08979,0.40575c0.02628,0.09316 0.05085,0.18677 0.07158,0.28145l-0.00282,0.0078h0.00324v0.06797z" fill="#505050" stroke="none" stroke-width="0.5" stroke-linecap="butt"/><path d="M239.20328,182.1975c-0.03015,0.00392 -0.0604,0.00723 -0.09047,0.00887l-0.00546,0.04373l-0.10804,-0.0135c-0.03577,-0.00395 -0.06359,-0.03426 -0.06359,-0.07108c0,-0.01975 0.00801,-0.03763 0.02095,-0.05057l0.04828,-0.04828c0.00515,-0.01074 0.00927,-0.02126 0.01275,-0.0315c-0.00016,-0.00194 -0.00024,-0.0039 -0.00024,-0.00588c0,-0.00386 0.00031,-0.00764 0.00089,-0.01133l0.01133,-0.07933c-0.01083,-0.07318 -0.00647,-0.157 0.01402,-0.24776c0.00134,-0.04619 0.01353,-0.09059 0.03926,-0.13101c0.00043,-0.00116 0.00087,-0.00233 0.0013,-0.0035c0.01672,-0.11777 0.04884,-0.22721 0.08606,-0.35132c0,0 0.02055,-0.0685 0.08905,-0.04795c0.0685,0.02055 0.04795,0.08905 0.04795,0.08905c-0.00463,0.01543 -0.00918,0.03059 -0.01363,0.04552c0.03279,0.00651 0.05751,0.03544 0.05751,0.07015c0,0.0085 -0.00148,0.01664 -0.0042,0.0242l-0.04033,0.12101l-0.00539,-0.00179c-0.01592,0.07249 -0.03059,0.12709 -0.05125,0.1792c-0.00161,0.00802 -0.00315,0.01594 -0.0046,0.02375l0.01112,0.00371l-0.02116,0.06348c-0.01401,0.13737 0.02618,0.23893 0.2574,0.31864h0.08659c0.03949,0 0.07152,0.03201 0.07152,0.07152c0,0.03737 -0.02865,0.06804 -0.06519,0.07124l-0.14154,0.01416l-0.00264,-0.02639c-0.09477,0.01408 -0.17459,0.00348 -0.23824,-0.02702z" fill="#505050" stroke="none" stroke-width="0.5" stroke-linecap="butt"/><path d="M240.12084,183.41874c0,-0.00865 0.00105,-0.01627 0.0029,-0.02295c-0.01747,-0.01097 -0.03476,-0.03145 -0.02942,-0.06889c0.01011,-0.0708 0.08091,-0.06069 0.08091,-0.06069c0.29525,0.0488 0.39513,0.32756 0.10559,0.46584l-0.01027,-0.00142l0.00031,0.00311l-0.14142,0.01383c-0.00259,0.00028 -0.00523,0.00043 -0.0079,0.00043c-0.03949,0 -0.07152,-0.03201 -0.07152,-0.07152c0,-0.025 0.01282,-0.04699 0.03224,-0.05978l0.07172,-0.04867c0.01281,-0.01475 0.02627,-0.02781 0.0407,-0.03781c-0.03284,-0.00521 -0.05824,-0.03277 -0.06012,-0.0666c-0.0081,-0.01039 -0.01374,-0.02482 -0.01374,-0.04489z" fill="#505050" stroke="none" stroke-width="0.5" stroke-linecap="butt"/><path d="M239.51167,183.37163c0.00299,0.01124 0.00299,0.01987 0.00299,0.01987v0.01362c-0.00087,0.04096 -0.0128,0.08069 -0.03108,0.11846l0.02166,0.01238l-0.0538,0.09415c-0.01214,0.02219 -0.03571,0.03724 -0.06278,0.03724c-0.03069,0 -0.05688,-0.01934 -0.06702,-0.0465l-0.02662,-0.06657l0.00444,-0.00178l-0.00828,-0.01126c0.00224,-0.08546 0.04396,-0.17063 0.09766,-0.23715c0,0 0.04654,-0.0543 0.10085,-0.00776c0.03077,0.02637 0.02915,0.05524 0.02198,0.0753z" fill="#505050" stroke="none" stroke-width="0.5" stroke-linecap="butt"/><path d="M240.12242,183.34531c0,0.07152 -0.07152,0.07152 -0.07152,0.07152h-0.09476c-0.16463,0.00276 -0.32858,0.01586 -0.49327,0.0159c0,0 -0.07152,0 -0.07152,-0.07152c0,-0.07152 0.07152,-0.07152 0.07152,-0.07152c0.16427,0.00003 0.32784,-0.01312 0.49206,-0.01589h0.09595c0,0 0.07152,0 0.07152,0.07152z" fill="#000000" stroke="none" stroke-width="0.5" stroke-linecap="butt"/><path d="M237.24659,178.92346c0,-0.03949 0.03201,-0.07152 0.07152,-0.07152c0.0061,0 0.01203,0.00076 0.01768,0.0022c0.01392,-0.00502 0.03144,-0.00549 0.05278,0.00421c0.0651,0.02959 0.03551,0.0947 0.03551,0.0947c-0.07749,0.17005 -0.10234,0.31918 -0.12766,0.50348l-0.00216,0.1219c-0.00059,0.03899 -0.03238,0.07041 -0.07151,0.07041c-0.03832,0 -0.06961,-0.03015 -0.07143,-0.06802l-0.00791,-0.14234l0.01144,-0.00064c0.00065,-0.00473 0.00129,-0.00946 0.00194,-0.01416c-0.0192,-0.10294 -0.0183,-0.19983 -0.00706,-0.33539l0.03899,-0.0791c0,0 0.02639,-0.04386 0.07163,-0.03504c0.00073,-0.00189 0.00145,-0.00378 0.00219,-0.00568c-0.00997,-0.01229 -0.01594,-0.02795 -0.01594,-0.04502z" fill="#505050" stroke="none" stroke-width="0.5" stroke-linecap="butt"/><path d="M242.50878,178.96088c0,0 -0.02381,-0.06744 0.04363,-0.09125c0.01996,-0.00704 0.0361,-0.0061 0.04893,-0.00127c-0.00465,-0.02137 -0.00352,-0.05386 0.0355,-0.07554c0.06251,-0.03474 0.09725,0.02779 0.09725,0.02779l0.07211,0.13107c0.04296,0.1714 0.04699,0.33822 0.01851,0.50424c0.00087,0.00413 0.00171,0.00827 0.00255,0.01242h0.01118v0.13622c0,0.03949 -0.03201,0.07152 -0.07152,0.07152c-0.03863,0 -0.07011,-0.03063 -0.07147,-0.06893l-0.00358,-0.08682c-0.03217,-0.19425 -0.11754,-0.37371 -0.1831,-0.55945z" fill="#505050" stroke="none" stroke-width="0.5" stroke-linecap="butt"/><path d="M242.95529,178.89345c0.06023,0.0071 0.06023,0.07088 0.06023,0.07088l-0.00017,0.04587l-0.00556,0.07936c-0.00228,0.03744 -0.03337,0.06709 -0.07138,0.06709c-0.0315,0 -0.05824,-0.02036 -0.06778,-0.04864l-0.04831,-0.13285l0.00263,-0.00095l-0.00514,-0.00759c-0.00502,-0.04833 -0.01004,-0.09667 -0.01506,-0.145c0,0 -0.00712,-0.07116 0.06405,-0.07827c0.07116,-0.00712 0.07828,0.06405 0.07828,0.06405c0.00275,0.02869 0.00549,0.05739 0.00823,0.08609z" fill="#505050" stroke="none" stroke-width="0.5" stroke-linecap="butt"/><path d="M237.08566,178.70193c0.01714,-0.01333 0.0457,-0.02523 0.0814,-0.00143c0.0595,0.03967 0.01983,0.09917 0.01983,0.09917l-0.01891,0.02381c-0.01598,0.04656 -0.04292,0.0891 -0.07607,0.12719l0.02229,0.01858l-0.06776,0.08131c-0.01312,0.01597 -0.03301,0.02615 -0.05529,0.02615c-0.03949,0 -0.07152,-0.03201 -0.07152,-0.07152c0,-0.00942 0.00182,-0.01842 0.00513,-0.02665l0.04029,-0.10743l0.00171,0.00064l0.00033,-0.00554c0.0235,-0.04244 0.04701,-0.08489 0.07051,-0.12733c0,0 0.01679,-0.03021 0.04803,-0.03697z" fill="#505050" stroke="none" stroke-width="0.5" stroke-linecap="butt"/><path d="M237.80458,179.30096c-0.05056,0.05056 -0.10114,0 -0.10114,0l-0.06181,-0.09144c0,-0.05946 -0.00938,-0.10142 0.00009,-0.13805c-0.00377,-0.00689 -0.00754,-0.01379 -0.01131,-0.02068l0.00598,-0.01836h-0.00837v-0.10897v0c0,-0.03949 0.03201,-0.07152 0.07152,-0.07152c0.03682,0 0.06713,0.02782 0.07108,0.06359l0.0135,0.10804l-0.00903,0.00113c0.01368,0.02254 0.02735,0.04508 0.04103,0.06762c0,0 0.03549,0.06209 -0.02661,0.09757c-0.00164,0.00094 -0.00326,0.0018 -0.00486,0.00261c0.00002,0.00551 0.00003,0.01119 0.00003,0.01704l0.01992,-0.0097c0,0 0.05056,0.05057 0,0.10114z" fill="#414141" stroke="none" stroke-width="0.5" stroke-linecap="butt"/><path d="M238.76204,179.21294c-0.07152,0 -0.07152,-0.07152 -0.07152,-0.07152v-0.06699c-0.00857,-0.01179 -0.01362,-0.0263 -0.01362,-0.042c0,-0.0085 0.00148,-0.01664 0.0042,-0.0242l0.01879,-0.05635l-0.00797,-0.00159l0.02698,-0.13492c0.006,-0.03342 0.03523,-0.0588 0.07039,-0.0588c0.02606,0 0.04886,0.01393 0.06136,0.03475c0.04342,0.0203 0.03685,0.07287 0.03685,0.07287c-0.00623,0.04264 -0.01247,0.08528 -0.01871,0.12793l-0.01696,0.01131l0.00692,0.00554l-0.02669,0.03336c0.00096,0.01036 0.00145,0.0207 0.00149,0.03094v0.06811c0,0 0,0.07152 -0.07152,0.07152z" fill="#414141" stroke="none" stroke-width="0.5" stroke-linecap="butt"/><path d="M241.16974,179.22315l0.00367,-0.04986c0.01561,-0.04497 0.0242,-0.09325 0.02357,-0.14085c0,0 0,-0.05018 0.04203,-0.06647c0.00332,-0.01708 0.01783,-0.06416 0.07629,-0.05929c0.07126,0.00594 0.06533,0.0772 0.06533,0.0772c-0.0078,0.09328 -0.01227,0.1869 -0.01338,0.28049l0.01152,0.03693c0,0 0.01719,0.06942 -0.05223,0.0866c-0.06942,0.01718 -0.08661,-0.05223 -0.08661,-0.05223l-0.00893,-0.04155c-0.06127,-0.00647 -0.06127,-0.07099 -0.06127,-0.07099z" fill="#414141" stroke="none" stroke-width="0.5" stroke-linecap="butt"/><path d="M242.45232,179.20029c0.01048,0.0106 0.01832,0.02643 0.01832,0.0501c0,0.07152 -0.07152,0.07152 -0.07152,0.07152l-0.02575,-0.02163c-0.00021,0.01243 -0.00044,0.02487 -0.00068,0.03732l-0.04846,0.08581c0,0 -0.03679,0.06132 -0.09812,0.02453c-0.06132,-0.03679 -0.02453,-0.09812 -0.02453,-0.09812l0.03327,-0.05041c-0.00297,-0.10267 -0.00259,-0.20512 -0.00259,-0.30784c0,0 0,-0.07152 0.07152,-0.07152c0.07152,0 0.07152,0.07152 0.07152,0.07152c0,0.00423 0,0.00847 0,0.0127c0.00182,0.00238 0.00276,0.00388 0.00276,0.00388c0.03504,0.05848 0.06341,0.12446 0.07428,0.19213z" fill="#414141" stroke="none" stroke-width="0.5" stroke-linecap="butt"/><path d="M241.50418,180.59857c0.01053,-0.0091 0.02559,-0.01562 0.04719,-0.01562c0.07152,0 0.07152,0.07152 0.07152,0.07152v0.03732c-0.00017,0.0757 0.00101,0.12429 -0.00305,0.17412h0.0155v0.12437c0,0.03949 -0.03201,0.07152 -0.07152,0.07152c-0.02707,0 -0.05064,-0.01505 -0.06278,-0.03724l-0.04906,-0.08586l0.00056,-0.00031l-0.00152,-0.00142c-0.05918,-0.11988 -0.0827,-0.17851 -0.08308,-0.30737c0,0 0,-0.07152 0.07152,-0.07152c0.03893,0 0.05666,0.02118 0.06475,0.0405z" fill="#505050" stroke="none" stroke-width="0.5" stroke-linecap="butt"/><path d="M238.61385,180.58662c0.01777,0.00592 0.02934,0.01495 0.03673,0.02505c0.01102,-0.0043 0.02473,-0.00585 0.04174,-0.00245c0.07013,0.01403 0.0561,0.08415 0.0561,0.08415c-0.03867,0.18605 -0.1063,0.37875 -0.20725,0.54273l0.00064,0.00036l-0.0615,0.11069c-0.01201,0.02263 -0.03581,0.03803 -0.06321,0.03803c-0.03949,0 -0.07152,-0.03201 -0.07152,-0.07152c0,-0.01201 0.00296,-0.02333 0.00819,-0.03327l0.03667,-0.07334l0.00186,0.00094l0.00024,-0.00485c0.0132,-0.01984 0.02592,-0.04023 0.03815,-0.06107c-0.00255,-0.1353 0.04723,-0.31785 0.06624,-0.43022l0.02643,-0.08c0,0 0.02262,-0.06784 0.09046,-0.04523z" fill="#505050" stroke="none" stroke-width="0.5" stroke-linecap="butt"/><path d="M237.88443,182.33697c0.0174,0.00266 0.03614,0.0127 0.04939,0.03919c0.03199,0.06397 -0.03198,0.09595 -0.03198,0.09595l-0.12133,-0.02057c-0.01095,-0.02291 -0.02149,-0.04452 -0.03104,-0.0655l-0.01024,0.03072c-0.00899,0.02922 -0.0362,0.05047 -0.06837,0.05047c-0.03201,0 -0.05912,-0.02104 -0.06825,-0.05006l-0.04164,-0.12241l0.00122,-0.00041l-0.00258,-0.0041c-0.00506,-0.02536 -0.01123,-0.05204 -0.01773,-0.07959c-0.06746,0.3529 -0.24104,0.02211 -0.24104,-0.54876c0,0 0,-0.07152 0.07152,-0.07152c0.07152,0 0.07152,0.07152 0.07152,0.07152c0,0.00885 -0.00001,0.01768 -0.00002,0.02648c0.01308,-0.01436 0.03193,-0.02336 0.05287,-0.02336c0.0274,0 0.0512,0.01541 0.06321,0.03803l0.0615,0.11069l-0.02655,0.01474c0.03052,0.06009 0.0474,0.11959 0.06055,0.18476c0.01147,-0.00784 0.02535,-0.01242 0.04029,-0.01242c0.02855,0 0.0532,0.01673 0.06466,0.04092l0.06327,0.12654l-0.0183,0.00915c0.02782,0.04888 0.05015,0.09798 0.07907,0.15954z" fill="#505050" stroke="none" stroke-width="0.5" stroke-linecap="butt"/><path d="M242.02897,182.28938c-0.04291,-0.05721 0.01431,-0.10012 0.01431,-0.10012l0.03884,-0.02719c0.14598,-0.12256 0.23721,-0.07465 0.26382,0.01492c0.05838,-0.12149 0.11679,-0.24439 0.18789,-0.35616c0.00092,-0.00653 0.00181,-0.01305 0.00267,-0.01959l-0.00732,-0.00275l0.03673,-0.09794c0.00974,-0.02793 0.0363,-0.04796 0.06755,-0.04796c0.03949,0 0.07152,0.03201 0.07152,0.07152c0,0.0085 -0.00148,0.01664 -0.00419,0.0242l-0.0226,0.06778c-0.00341,0.03054 -0.00696,0.08189 -0.01188,0.1427c0.02813,-0.11609 0.04557,-0.23178 0.04489,-0.33419c0,0 0,-0.07152 0.07152,-0.07152c0.07152,0 0.07152,0.07152 0.07152,0.07152c-0.00144,0.26543 -0.10423,0.60143 -0.21562,0.8421l-0.03794,0.09166c-0.01035,0.02674 -0.03632,0.0457 -0.06671,0.0457c-0.03642,0 -0.06649,-0.02723 -0.07095,-0.06244l-0.01229,-0.08602l0.02537,-0.00362c-0.00965,-0.05315 -0.01242,-0.10685 -0.01072,-0.16097c-0.03873,0.0623 -0.07448,0.11736 -0.09561,0.15656l-0.00566,0.00383l0.00181,0.00145l-0.04934,0.06167c-0.0131,0.01666 -0.03342,0.02736 -0.05626,0.02736c-0.03949,0 -0.07152,-0.03201 -0.07152,-0.07152v-0.11194h0.03255c-0.00094,-0.11157 0.00385,-0.20153 -0.03159,-0.10216l-0.06066,0.04743c0,0 -0.05721,0.04291 -0.10012,-0.01431z" fill="#505050" stroke="none" stroke-width="0.5" stroke-linecap="butt"/><path d="M241.73875,182.01097c-0.05056,0.05056 -0.10114,0 -0.10114,0l-0.04582,-0.07545c0,-0.10197 -0.02053,-0.2139 0.00003,-0.30923c-0.00001,-0.0213 -0.00002,-0.04259 -0.00003,-0.0639h-0.00001v-0.08775c0,-0.01221 0,-0.03663 0,-0.03663c0,0 0,-0.06746 0.06552,-0.07134l0.006,-0.01261c0.00143,0.00419 0.00285,0.00837 0.00423,0.01253c0.06728,0.00276 0.06728,0.07143 0.06728,0.07143c0,0.01973 0,0.03946 0,0.05919c0.01406,0.12453 0.02305,0.19815 0.00429,0.28299l0.02004,0.00251l-0.01232,0.09856c-0.00131,0.01193 -0.00556,0.02297 -0.012,0.03239c0,0.00723 0,0.01452 0,0.02187l0.00393,-0.02569c0,0 0.05056,0.05056 0,0.10113z" fill="#505050" stroke="none" stroke-width="0.5" stroke-linecap="butt"/><path d="M238.23367,181.64947c0,0 0,-0.07152 0.07152,-0.07152c0.02025,0 0.03476,0.00573 0.04517,0.01395c0.00517,-0.00098 0.01082,-0.00151 0.01702,-0.00151c0.07152,0 0.07152,0.07152 0.07152,0.07152l-0.00224,0.0302c-0.01889,0.07368 -0.03868,0.14544 -0.05994,0.21682c0,0.00265 0,0.00529 0,0.00794v0.14304c0,0.03949 -0.03201,0.07152 -0.07152,0.07152c-0.03949,0 -0.07152,-0.03201 -0.07152,-0.07152c0,-0.02073 0,-0.1223 0,-0.14304c0,-0.08914 0,-0.17827 0,-0.26741z" fill="#505050" stroke="none" stroke-width="0.5" stroke-linecap="butt"/><path d="M240.23358,178.20953c0.02669,0.02289 0.0534,0.04577 0.0801,0.06866l0.02938,0.05922c0.01371,0.0112 0.02737,0.02247 0.04096,0.03381l0.00148,0.0031l0.00087,-0.00087l0.0801,0.0801c0.00099,0.00099 0.00195,0.00201 0.00289,0.00306l0.05724,0.02862c0.02419,0.01147 0.04092,0.03611 0.04092,0.06466c0,0.03949 -0.03201,0.07152 -0.07152,0.07152c-0.00963,0 -0.01882,-0.00191 -0.0272,-0.00535l-0.13197,-0.05076l0.00722,-0.01877c-0.0489,-0.0129 -0.0961,-0.03057 -0.13978,-0.05507l-0.014,-0.0072c-0.03184,0.00617 -0.05934,-0.01583 -0.05934,-0.01583l-0.04038,-0.03229c-0.01987,0.02573 -0.04886,0.04596 -0.0952,0.07107c-0.0407,0.05761 -0.10222,0.09195 -0.19104,0.14231l-0.00748,-0.00017l0.00091,0.00272l-0.06707,0.02236c-0.00756,0.00272 -0.01571,0.00419 -0.0242,0.00419c-0.03949,0 -0.07152,-0.03201 -0.07152,-0.07152c0,-0.01872 0.00718,-0.03575 0.01895,-0.04849l0.0965,-0.10526l0.01173,0.01075c0.00282,-0.00365 0.00565,-0.00726 0.00851,-0.01087c-0.03201,-0.05568 0.00838,-0.17418 0.07162,-0.28712l-0.00614,-0.00458c-0.01789,-0.013 -0.02953,-0.03409 -0.02953,-0.05789c0,-0.03949 0.03201,-0.07152 0.07152,-0.07152c0.00367,0 0.00726,0.00027 0.01077,0.0008l0.03209,-0.04813c0.01225,-0.01897 0.03323,-0.03177 0.05726,-0.03271v-0.0544c0,-0.03949 0.03201,-0.07152 0.07152,-0.07152c0.03949,0 0.07152,0.03201 0.07152,0.07152v0.07713c0.00795,0.07152 0.02109,0.1422 0.03512,0.21283l0.0031,-0.00155l0.00426,0.00852c0.0367,-0.01348 0.06986,0.01494 0.06986,0.01494z" fill="#505050" stroke="none" stroke-width="0.5" stroke-linecap="butt"/><path d="M240.2267,177.78552c0,0 -0.04248,0.02831 -0.07958,0.00122c-0.01471,0.01624 -0.04258,0.03521 -0.08362,0.01468c-0.01139,-0.0057 -0.01973,-0.0124 -0.02576,-0.01957c-0.06671,0.06963 -0.4356,-0.08706 -0.5347,-0.09929l-0.00257,0.00056c0,0 -0.07152,0 -0.07152,-0.07152c0,-0.02049 0.00587,-0.03512 0.01425,-0.04555c0.01324,-0.04886 0.06871,-0.04886 0.06871,-0.04886c0.08236,0.00004 0.50999,-0.00268 0.56773,0.13106c0.1946,-0.09767 0.31013,-0.17876 0.48535,-0.19782l-0.00386,-0.02509l0.1401,-0.02155c0.00395,-0.00067 0.00801,-0.00102 0.01214,-0.00102c0.03949,0 0.07152,0.03201 0.07152,0.07152c0,0.03104 -0.01977,0.05746 -0.04741,0.06735l-0.08673,0.03335c-0.14476,0.07797 -0.28884,0.12039 -0.42406,0.21054z" fill="#414141" stroke="none" stroke-width="0.5" stroke-linecap="butt"/><path d="M239.47489,180.04858c0.04893,0.0334 0.02088,0.08947 0.02088,0.08947l-0.00757,0.01352c-0.04029,0.11973 -0.04429,0.20345 -0.0857,0.28654l-0.0042,0.0231l0.01736,0.00868l-0.03363,0.06727c-0.01147,0.02419 -0.03611,0.04092 -0.06466,0.04092c-0.03949,0 -0.07152,-0.03201 -0.07152,-0.07152c0,-0.00486 0.00048,-0.0096 0.00141,-0.01418l0.0219,-0.12044c0.00397,-0.12767 0.0446,-0.2461 0.06963,-0.37143c0,0 0.01403,-0.07013 0.08415,-0.0561c0.07013,0.01403 0.0561,0.08415 0.0561,0.08415c-0.00134,0.00669 -0.00273,0.01337 -0.00416,0.02003z" fill="#505050" stroke="none" stroke-width="0.5" stroke-linecap="butt"/><path d="M240.65313,180.00012c0.00287,-0.00003 0.00586,0.00009 0.00899,0.00035c0.07127,0.00594 0.06533,0.0772 0.06533,0.0772l-0.01138,0.13664c-0.00269,0.03704 -0.0336,0.06625 -0.07133,0.06625c-0.03642,0 -0.06649,-0.02723 -0.07095,-0.06244l-0.0102,-0.07141c-0.01754,-0.03801 -0.03508,-0.07602 -0.05261,-0.11404c0,0 -0.02959,-0.0651 0.03551,-0.0947c0.0651,-0.02959 0.0947,0.03551 0.0947,0.03551c0.00398,0.00887 0.00797,0.01775 0.01195,0.02663z" fill="#505050" stroke="none" stroke-width="0.5" stroke-linecap="butt"/><path d="M238.30126,182.91725c0.02656,-0.0664 0.09296,-0.03984 0.09296,-0.03984l0.02779,0.01129v-0.03642c0,-0.0155 0.00493,-0.02984 0.0133,-0.04155c-0.01519,-0.0325 -0.02942,-0.06716 -0.04346,-0.10603c0,0 -0.02405,-0.06735 0.04329,-0.09141c0.06735,-0.02405 0.09141,0.04329 0.09141,0.04329c0.03548,0.10057 0.07267,0.16508 0.12636,0.25264l0.0543,0.02715c0.02419,0.01147 0.04092,0.03611 0.04092,0.06466c0,0.03949 -0.03201,0.07152 -0.07152,0.07152c-0.00386,0 -0.00764,-0.00031 -0.01133,-0.00089l-0.07888,-0.01127l0.00091,-0.00634c-0.01269,0.0115 -0.02953,0.01851 -0.04801,0.01851c-0.00773,0 -0.01517,-0.00122 -0.02214,-0.00349l-0.11283,-0.03385l-0.06322,-0.02498c0,0 -0.0664,-0.02656 -0.03984,-0.09296z" fill="#505050" stroke="none" stroke-width="0.5" stroke-linecap="butt"/><path d="M241.76896,183.04679c0,0.07152 -0.07152,0.07152 -0.07152,0.07152h-0.04577c-0.0443,-0.00953 -0.07584,-0.02657 -0.09699,-0.04791c-0.00558,0.0014 -0.01143,0.00214 -0.01745,0.00214c-0.03949,0 -0.07152,-0.03201 -0.07152,-0.07152c0,-0.01711 0.006,-0.03281 0.01603,-0.04512l0.044,-0.05501c0.03106,-0.046 0.05229,-0.09857 0.06951,-0.15134c0,0 0.01613,-0.04841 0.06204,-0.04981c0.01301,-0.01354 0.03131,-0.02197 0.05158,-0.02197c0.03949,0 0.07152,0.03201 0.07152,0.07152c0,0.00739 -0.00112,0.01452 -0.0032,0.02123l-0.02243,0.07851l-0.0222,-0.00634l-0.00727,0.01091c-0.0069,0.01547 -0.01548,0.02988 -0.0254,0.0434c-0.00792,0.01704 -0.01601,0.03166 -0.02328,0.04355l0.00563,0.005l-0.02642,0.02972h0.04162c0,0 0.07152,0 0.07152,0.07152z" fill="#505050" stroke="none" stroke-width="0.5" stroke-linecap="butt"/><path d="M240.38155,179.47958c-0.07152,0 -0.07152,-0.07152 -0.07152,-0.07152l0.00302,-0.00234c-0.04015,-0.21977 -0.12115,0.07485 -0.25839,0.07156c-0.08495,-0.00204 -0.31136,-0.19321 -0.34706,0.03782c0,0 -0.01551,0.06981 -0.08532,0.0543c-0.06981,-0.01551 -0.0543,-0.08532 -0.0543,-0.08532c0.06274,-0.23809 0.78481,-0.38441 0.88207,-0.11946l0.00302,0.04343c0,0 0,0.07152 -0.07152,0.07152z" fill="#414141" stroke="none" stroke-width="0.5" stroke-linecap="butt"/><path d="M239.90955,178.13795c0,0 0,-0.07152 0.07152,-0.07152c0.07152,0 0.07152,0.07152 0.07152,0.07152c-0.00001,0.00454 -0.00003,0.00908 -0.00007,0.01362c0.04544,0.00747 0.09704,0.03692 0.14427,0.0968c0.04572,-0.00332 0.06679,0.04306 0.06679,0.04306l0.05658,0.12447c0.00451,0.00938 0.00704,0.01989 0.00704,0.03099c0,0.03949 -0.03201,0.07152 -0.07152,0.07152c-0.01975,0 -0.03763,-0.00801 -0.05057,-0.02095l-0.05721,-0.05721l0.0038,-0.0038l-0.0117,-0.0056c-0.01934,-0.04015 -0.08987,-0.14683 -0.06541,-0.20998c0.01579,-0.04078 0.00124,-0.0124 -0.0266,0.03881c-0.00224,0.03016 -0.00529,0.06026 -0.00918,0.09022l0.00621,0.00311l-0.04508,0.09015c-0.01147,0.02419 -0.03611,0.04092 -0.06466,0.04092c-0.03949,0 -0.07152,-0.03201 -0.07152,-0.07152c0,-0.01057 0.00229,-0.0206 0.0064,-0.02963l0.03069,-0.07163c0.00663,-0.05747 0.00875,-0.11551 0.00866,-0.17337z" fill="#414141" stroke="none" stroke-width="0.5" stroke-linecap="butt"/><path d="M240.38442,177.64592c0,0.07152 -0.07152,0.07152 -0.07152,0.07152l0.00528,-0.00578c-0.12937,0.05325 -0.28782,0.06252 -0.42866,0.063c0,0 -0.07152,0 -0.07152,-0.07152c0,-0.07152 0.07152,-0.07152 0.07152,-0.07152c0.1173,0.00046 0.26644,-0.00352 0.37231,-0.05143l0.05105,-0.00578c0,0 0.07152,0 0.07152,0.07152z" fill="#505050" stroke="none" stroke-width="0.5" stroke-linecap="butt"/><path d="M240.57893,182.72639c0,0.07152 -0.07152,0.07152 -0.07152,0.07152h-0.04577c-0.07273,0 -0.264,0.0141 -0.45681,0.01876c-0.0131,0.00412 -0.02378,0.00412 -0.02378,0.00412c-0.14684,0 -0.29369,0 -0.44054,0h-0.1087c-0.03949,0 -0.07152,-0.03201 -0.07152,-0.07152c0,-0.03642 0.02723,-0.06649 0.06244,-0.07095l0.07905,-0.0113l0.00153,0.01073c0.00026,0 0.03771,0 0.03796,0c0.28398,-0.07873 0.63792,-0.02289 0.92034,-0.02289h0.04577c0,0 0.07152,0 0.07152,0.07152z" fill="#414141" stroke="none" stroke-width="0.5" stroke-linecap="butt"/><path d="M241.06801,182.47122h-2.0819" fill="none" stroke="#000000" stroke-width="0.5" stroke-linecap="round"/></g></g></svg>