<svg version="1.1" xmlns="http://www.w3.org/2000/svg" xmlns:xlink="http://www.w3.org/1999/xlink" width="224.97589" height="224.74059" viewBox="0,0,224.97589,224.74059"><defs><radialGradient cx="224.58844" cy="179.71447" r="56.2453" gradientUnits="userSpaceOnUse" id="color-1"><stop offset="0" stop-color="#ffffff"/><stop offset="1" stop-color="#ffffff" stop-opacity="0"/></radialGradient><radialGradient cx="254.82374" cy="179.65565" r="56.2453" gradientUnits="userSpaceOnUse" id="color-2"><stop offset="0" stop-color="#ffffff"/><stop offset="1" stop-color="#ffffff" stop-opacity="0"/></radialGradient><radialGradient cx="239.64727" cy="190.47918" r="56.2453" gradientUnits="userSpaceOnUse" id="color-3"><stop offset="0" stop-color="#ffffff"/><stop offset="1" stop-color="#ffffff" stop-opacity="0"/></radialGradient><radialGradient cx="240.23551" cy="168.538" r="56.2453" gradientUnits="userSpaceOnUse" id="color-4"><stop offset="0" stop-color="#ffffff"/><stop offset="1" stop-color="#ffffff" stop-opacity="0"/></radialGradient><radialGradient cx="229.52963" cy="189.59683" r="45.5865" gradientUnits="userSpaceOnUse" id="color-5"><stop offset="0" stop-color="#ffffff"/><stop offset="1" stop-color="#ffffff" stop-opacity="0"/></radialGradient><radialGradient cx="250.05904" cy="169.89094" r="45.5865" gradientUnits="userSpaceOnUse" id="color-6"><stop offset="0" stop-color="#ffffff"/><stop offset="1" stop-color="#ffffff" stop-opacity="0"/></radialGradient><radialGradient cx="249.47081" cy="188.89094" r="45.5865" gradientUnits="userSpaceOnUse" id="color-7"><stop offset="0" stop-color="#ffffff"/><stop offset="1" stop-color="#ffffff" stop-opacity="0"/></radialGradient><radialGradient cx="231.11787" cy="169.89094" r="45.5865" gradientUnits="userSpaceOnUse" id="color-8"><stop offset="0" stop-color="#ffffff"/><stop offset="1" stop-color="#ffffff" stop-opacity="0"/></radialGradient><radialGradient cx="240.13583" cy="180.14646" r="25" gradientUnits="userSpaceOnUse" id="color-9"><stop offset="0" stop-color="#ffffff"/><stop offset="1" stop-color="#ffffff" stop-opacity="0"/></radialGradient></defs><g transform="translate(-127.51205,-67.6297)"><g data-paper-data="{&quot;isPaintingLayer&quot;:true}" fill-rule="nonzero" stroke="none" stroke-width="0" stroke-linecap="butt" stroke-linejoin="miter" stroke-miterlimit="10" stroke-dasharray="" stroke-dashoffset="0" style="mix-blend-mode: normal"><path d="M240.00264,179.93868l-112.44323,16.49488l-0.04736,-29.19061z" data-paper-data="{&quot;index&quot;:null}" fill="url(#color-1)"/><path d="M352.48795,167.24294l-0.04737,29.1906l-112.44323,-16.49487z" data-paper-data="{&quot;index&quot;:null}" fill="url(#color-2)"/><path d="M239.99749,179.87971l16.49487,112.44323l-29.1906,0.04736z" data-paper-data="{&quot;index&quot;:null}" fill="url(#color-3)"/><path d="M227.30176,67.62971l29.1906,0.04736l-16.49487,112.44323z" data-paper-data="{&quot;index&quot;:null}" fill="url(#color-4)"/><path d="M240.498,179.33064l-67.84573,91.17301l-20.67437,-20.60738z" data-paper-data="{&quot;index&quot;:null}" fill="url(#color-5)"/><path d="M310.89349,90.98066l20.60739,20.67437l-91.17301,67.84574z" data-paper-data="{&quot;index&quot;:null}" fill="url(#color-6)"/><path d="M239.62077,179.54216l91.17301,67.84574l-20.60738,20.67436z" data-paper-data="{&quot;index&quot;:null}" fill="url(#color-7)"/><path d="M151.2708,109.14666l20.67437,-20.60738l67.84573,91.173z" data-paper-data="{&quot;index&quot;:null}" fill="url(#color-8)"/><path d="M215.13583,180.14646c0,-13.80712 11.19288,-25 25,-25c13.80712,0 25,11.19288 25,25c0,13.80712 -11.19288,25 -25,25c-13.80712,0 -25,-11.19288 -25,-25z" fill="url(#color-9)"/></g></g></svg>